<svg width="24" height="24" viewBox="0 0 24 24" fill="none" xmlns="http://www.w3.org/2000/svg">
<path d="M5.55029 23C4.94229 23 4.42476 22.7805 3.99771 22.3415C3.57067 21.9026 3.35714 21.371 3.35714 20.747V3.46925H2V2.07419H7.42857V1H15.5714V2.07419H21V3.46925H19.6429V20.747C19.6429 21.3887 19.4339 21.9249 19.0159 22.3555C18.5979 22.7861 18.0758 23.0009 17.4497 23H5.55029ZM18.2857 3.46925H4.71429V20.747C4.71429 20.9972 4.79255 21.2027 4.94907 21.3636C5.10559 21.5245 5.306 21.6049 5.55029 21.6049H17.4511C17.6592 21.6049 17.8505 21.5157 18.0251 21.3371C18.1998 21.1585 18.2866 20.9614 18.2857 20.7456V3.46925ZM8.52514 18.8148H9.88229V6.25935H8.52514V18.8148ZM13.1177 18.8148H14.4749V6.25935H13.1177V18.8148Z" fill="#004663"/>
</svg>
